<?xml version="1.0" encoding="UTF-8" standalone="no"?>
<!DOCTYPE svg PUBLIC "-//W3C//DTD SVG 1.1//EN"
 "http://www.w3.org/Graphics/SVG/1.1/DTD/svg11.dtd">
<!-- Generated by graphviz version 2.40.1 (20161225.0304)
 -->
<!-- Title: dependencies Pages: 1 -->
<svg width="504pt" height="284pt"
 viewBox="0.00 0.00 504.00 284.00" xmlns="http://www.w3.org/2000/svg" xmlns:xlink="http://www.w3.org/1999/xlink">
<g id="graph0" class="graph" transform="scale(1 1) rotate(0) translate(4 280)">
<title>dependencies</title>
<polygon fill="#ffffff" stroke="transparent" points="-4,4 -4,-280 500,-280 500,4 -4,4"/>
<text text-anchor="start" x="227.0091" y="-42.4" font-family="sans-serif" font-weight="bold" font-size="14.00" fill="#000000">Legend</text>
<polygon fill="#ffffb3" stroke="transparent" points="14,-10 14,-30 34,-30 34,-10 14,-10"/>
<text text-anchor="start" x="37.629" y="-15.4" font-family="sans-serif" font-size="14.00" fill="#000000"> &#160;Declarations</text>
<polygon fill="#8dd3c7" stroke="transparent" points="127,-10 127,-30 147,-30 147,-10 127,-10"/>
<text text-anchor="start" x="150.7251" y="-15.4" font-family="sans-serif" font-size="14.00" fill="#000000"> &#160;Module</text>
<polygon fill="#80b1d3" stroke="transparent" points="213,-10 213,-30 233,-30 233,-10 213,-10"/>
<text text-anchor="start" x="236.7812" y="-15.4" font-family="sans-serif" font-size="14.00" fill="#000000"> &#160;Bootstrap</text>
<polygon fill="#fdb462" stroke="transparent" points="310,-10 310,-30 330,-30 330,-10 310,-10"/>
<text text-anchor="start" x="333.6732" y="-15.4" font-family="sans-serif" font-size="14.00" fill="#000000"> &#160;Providers</text>
<polygon fill="#fb8072" stroke="transparent" points="406,-10 406,-30 426,-30 426,-10 406,-10"/>
<text text-anchor="start" x="429.7258" y="-15.4" font-family="sans-serif" font-size="14.00" fill="#000000"> &#160;Exports</text>
<g id="clust1" class="cluster">
<title>cluster_AppModule</title>
<polygon fill="none" stroke="#000000" stroke-dasharray="1,5" points="35.5,-70 35.5,-268 460.5,-268 460.5,-70 35.5,-70"/>
</g>
<g id="clust2" class="cluster">
<title>cluster_AppModule_declarations</title>
<polygon fill="none" stroke="#000000" points="195.5,-78 195.5,-130 452.5,-130 452.5,-78 195.5,-78"/>
</g>
<g id="clust5" class="cluster">
<title>cluster_AppModule_imports</title>
<polygon fill="none" stroke="#000000" points="43.5,-78 43.5,-130 187.5,-130 187.5,-78 43.5,-78"/>
</g>
<g id="clust7" class="cluster">
<title>cluster_AppModule_bootstrap</title>
<polygon fill="none" stroke="#000000" points="200.5,-208 200.5,-260 324.5,-260 324.5,-208 200.5,-208"/>
</g>
<!-- AppComponent -->
<g id="node1" class="node">
<title>AppComponent</title>
<polygon fill="#ffffb3" stroke="#000000" points="444.4399,-122 338.5601,-122 338.5601,-86 444.4399,-86 444.4399,-122"/>
<text text-anchor="middle" x="391.5" y="-99.8" font-family="Times,serif" font-size="14.00" fill="#000000">AppComponent</text>
</g>
<!-- AppModule -->
<g id="node3" class="node">
<title>AppModule</title>
<polygon fill="#8dd3c7" stroke="#000000" points="304.1571,-187 301.1571,-191 280.1571,-191 277.1571,-187 220.8429,-187 220.8429,-151 304.1571,-151 304.1571,-187"/>
<text text-anchor="middle" x="262.5" y="-164.8" font-family="Times,serif" font-size="14.00" fill="#000000">AppModule</text>
</g>
<!-- AppComponent&#45;&gt;AppModule -->
<g id="edge1" class="edge">
<title>AppComponent&#45;&gt;AppModule</title>
<path fill="none" stroke="#000000" d="M391.5,-122.1061C391.5,-141.3391 391.5,-169 391.5,-169 391.5,-169 314.3826,-169 314.3826,-169"/>
<polygon fill="#000000" stroke="#000000" points="314.3826,-165.5001 304.3826,-169 314.3826,-172.5001 314.3826,-165.5001"/>
</g>
<!-- PublicComponent -->
<g id="node2" class="node">
<title>PublicComponent</title>
<polygon fill="#ffffb3" stroke="#000000" points="321.1109,-122 203.8891,-122 203.8891,-86 321.1109,-86 321.1109,-122"/>
<text text-anchor="middle" x="262.5" y="-99.8" font-family="Times,serif" font-size="14.00" fill="#000000">PublicComponent</text>
</g>
<!-- PublicComponent&#45;&gt;AppModule -->
<g id="edge2" class="edge">
<title>PublicComponent&#45;&gt;AppModule</title>
<path fill="none" stroke="#000000" d="M262.5,-122.1061C262.5,-122.1061 262.5,-140.991 262.5,-140.991"/>
<polygon fill="#000000" stroke="#000000" points="259.0001,-140.9909 262.5,-150.991 266.0001,-140.991 259.0001,-140.9909"/>
</g>
<!-- AppComponent  -->
<g id="node5" class="node">
<title>AppComponent </title>
<polygon fill="#80b1d3" stroke="#000000" points="316.939,-252 208.061,-252 208.061,-216 316.939,-216 316.939,-252"/>
<text text-anchor="middle" x="262.5" y="-229.8" font-family="Times,serif" font-size="14.00" fill="#000000">AppComponent </text>
</g>
<!-- AppModule&#45;&gt;AppComponent  -->
<g id="edge4" class="edge">
<title>AppModule&#45;&gt;AppComponent </title>
<path fill="none" stroke="#000000" stroke-dasharray="1,5" d="M262.5,-187.1061C262.5,-187.1061 262.5,-205.991 262.5,-205.991"/>
<polygon fill="#000000" stroke="#000000" points="259.0001,-205.9909 262.5,-215.991 266.0001,-205.991 259.0001,-205.9909"/>
</g>
<!-- AppRoutingModule -->
<g id="node4" class="node">
<title>AppRoutingModule</title>
<polygon fill="#8dd3c7" stroke="#000000" points="179.7744,-122 176.7744,-126 155.7744,-126 152.7744,-122 51.2256,-122 51.2256,-86 179.7744,-86 179.7744,-122"/>
<text text-anchor="middle" x="115.5" y="-99.8" font-family="Times,serif" font-size="14.00" fill="#000000">AppRoutingModule</text>
</g>
<!-- AppRoutingModule&#45;&gt;AppModule -->
<g id="edge3" class="edge">
<title>AppRoutingModule&#45;&gt;AppModule</title>
<path fill="none" stroke="#000000" d="M115.5,-122.1061C115.5,-141.3391 115.5,-169 115.5,-169 115.5,-169 210.7689,-169 210.7689,-169"/>
<polygon fill="#000000" stroke="#000000" points="210.7689,-172.5001 220.7689,-169 210.7689,-165.5001 210.7689,-172.5001"/>
</g>
</g>
</svg>
